<mxfile host="app.diagrams.net" agent="Mozilla/5.0 (Windows NT 10.0; Win64; x64) AppleWebKit/537.36 (KHTML, like Gecko) Chrome/130.0.0.0 Safari/537.36" version="24.9.0">
  <diagram name="Page-1" id="4G9tDsPsPheJ7Nru8Rw2">
    <mxGraphModel dx="4040" dy="1693" grid="1" gridSize="10" guides="1" tooltips="1" connect="1" arrows="1" fold="1" page="1" pageScale="1" pageWidth="850" pageHeight="1100" math="0" shadow="0">
      <root>
        <mxCell id="0" />
        <mxCell id="1" parent="0" />
        <mxCell id="iyYxWgwIjE0jgkwZciX1-45" value="" style="group" parent="1" vertex="1" connectable="0">
          <mxGeometry x="-840" y="10" width="740" height="600" as="geometry" />
        </mxCell>
        <mxCell id="iyYxWgwIjE0jgkwZciX1-11" value="" style="shape=internalStorage;whiteSpace=wrap;html=1;backgroundOutline=1;dx=200;dy=60;" parent="iyYxWgwIjE0jgkwZciX1-45" vertex="1">
          <mxGeometry width="740" height="600" as="geometry" />
        </mxCell>
        <mxCell id="iyYxWgwIjE0jgkwZciX1-19" value="" style="group" parent="iyYxWgwIjE0jgkwZciX1-45" vertex="1" connectable="0">
          <mxGeometry x="20" y="10" width="150" height="310" as="geometry" />
        </mxCell>
        <mxCell id="iyYxWgwIjE0jgkwZciX1-12" value="PDMS" style="rounded=1;whiteSpace=wrap;html=1;" parent="iyYxWgwIjE0jgkwZciX1-19" vertex="1">
          <mxGeometry width="150" height="40" as="geometry" />
        </mxCell>
        <mxCell id="iyYxWgwIjE0jgkwZciX1-13" value="User Profile" style="rounded=1;whiteSpace=wrap;html=1;" parent="iyYxWgwIjE0jgkwZciX1-19" vertex="1">
          <mxGeometry y="70" width="150" height="40" as="geometry" />
        </mxCell>
        <mxCell id="iyYxWgwIjE0jgkwZciX1-15" value="My Drive" style="rounded=1;whiteSpace=wrap;html=1;" parent="iyYxWgwIjE0jgkwZciX1-19" vertex="1">
          <mxGeometry y="123" width="150" height="40" as="geometry" />
        </mxCell>
        <mxCell id="iyYxWgwIjE0jgkwZciX1-16" value="Share with me" style="rounded=1;whiteSpace=wrap;html=1;" parent="iyYxWgwIjE0jgkwZciX1-19" vertex="1">
          <mxGeometry y="173" width="150" height="40" as="geometry" />
        </mxCell>
        <mxCell id="iyYxWgwIjE0jgkwZciX1-17" value="Trash" style="rounded=1;whiteSpace=wrap;html=1;" parent="iyYxWgwIjE0jgkwZciX1-19" vertex="1">
          <mxGeometry y="223" width="150" height="40" as="geometry" />
        </mxCell>
        <mxCell id="iyYxWgwIjE0jgkwZciX1-18" style="edgeStyle=orthogonalEdgeStyle;rounded=0;orthogonalLoop=1;jettySize=auto;html=1;exitX=0.5;exitY=1;exitDx=0;exitDy=0;" parent="iyYxWgwIjE0jgkwZciX1-19" source="iyYxWgwIjE0jgkwZciX1-15" target="iyYxWgwIjE0jgkwZciX1-15" edge="1">
          <mxGeometry relative="1" as="geometry" />
        </mxCell>
        <mxCell id="iyYxWgwIjE0jgkwZciX1-23" value="" style="group" parent="iyYxWgwIjE0jgkwZciX1-45" vertex="1" connectable="0">
          <mxGeometry x="368" y="10" width="200" height="40" as="geometry" />
        </mxCell>
        <mxCell id="iyYxWgwIjE0jgkwZciX1-21" value="Search" style="rounded=1;whiteSpace=wrap;html=1;" parent="iyYxWgwIjE0jgkwZciX1-23" vertex="1">
          <mxGeometry width="150" height="40" as="geometry" />
        </mxCell>
        <mxCell id="iyYxWgwIjE0jgkwZciX1-22" value="fliter" style="rounded=1;whiteSpace=wrap;html=1;" parent="iyYxWgwIjE0jgkwZciX1-23" vertex="1">
          <mxGeometry x="160" width="40" height="40" as="geometry" />
        </mxCell>
        <mxCell id="iyYxWgwIjE0jgkwZciX1-27" value="Upload" style="rounded=1;whiteSpace=wrap;html=1;" parent="iyYxWgwIjE0jgkwZciX1-45" vertex="1">
          <mxGeometry x="580" y="10" width="60" height="40" as="geometry" />
        </mxCell>
        <mxCell id="iyYxWgwIjE0jgkwZciX1-28" value="Create" style="rounded=1;whiteSpace=wrap;html=1;" parent="iyYxWgwIjE0jgkwZciX1-45" vertex="1">
          <mxGeometry x="650" y="10" width="60" height="40" as="geometry" />
        </mxCell>
        <mxCell id="iyYxWgwIjE0jgkwZciX1-29" value="&lt;b&gt;&lt;u&gt;Home&lt;/u&gt;&lt;/b&gt;" style="text;html=1;align=center;verticalAlign=middle;whiteSpace=wrap;rounded=0;" parent="iyYxWgwIjE0jgkwZciX1-45" vertex="1">
          <mxGeometry x="220" y="15" width="60" height="30" as="geometry" />
        </mxCell>
        <mxCell id="iyYxWgwIjE0jgkwZciX1-30" value="" style="rounded=0;whiteSpace=wrap;html=1;" parent="iyYxWgwIjE0jgkwZciX1-45" vertex="1">
          <mxGeometry x="210" y="80" width="500" height="480" as="geometry" />
        </mxCell>
        <mxCell id="iyYxWgwIjE0jgkwZciX1-31" value="My drive" style="rounded=1;whiteSpace=wrap;html=1;" parent="iyYxWgwIjE0jgkwZciX1-45" vertex="1">
          <mxGeometry x="240" y="135" width="120" height="60" as="geometry" />
        </mxCell>
        <mxCell id="iyYxWgwIjE0jgkwZciX1-32" value="User 1 Drive" style="rounded=1;whiteSpace=wrap;html=1;" parent="iyYxWgwIjE0jgkwZciX1-45" vertex="1">
          <mxGeometry x="394" y="135" width="120" height="60" as="geometry" />
        </mxCell>
        <mxCell id="iyYxWgwIjE0jgkwZciX1-33" value="User 2 drive" style="rounded=1;whiteSpace=wrap;html=1;" parent="iyYxWgwIjE0jgkwZciX1-45" vertex="1">
          <mxGeometry x="550" y="135" width="120" height="60" as="geometry" />
        </mxCell>
        <mxCell id="iyYxWgwIjE0jgkwZciX1-34" value="&lt;b&gt;&lt;u&gt;Recent Drive&lt;/u&gt;&lt;/b&gt;" style="text;html=1;align=center;verticalAlign=middle;whiteSpace=wrap;rounded=0;" parent="iyYxWgwIjE0jgkwZciX1-45" vertex="1">
          <mxGeometry x="240" y="100" width="80" height="30" as="geometry" />
        </mxCell>
        <mxCell id="iyYxWgwIjE0jgkwZciX1-35" value="&lt;b&gt;&lt;u&gt;Recent File (lastest 10 files)&lt;/u&gt;&lt;/b&gt;" style="text;html=1;align=center;verticalAlign=middle;whiteSpace=wrap;rounded=0;" parent="iyYxWgwIjE0jgkwZciX1-45" vertex="1">
          <mxGeometry x="240" y="220" width="170" height="30" as="geometry" />
        </mxCell>
        <mxCell id="iyYxWgwIjE0jgkwZciX1-37" value="&lt;span style=&quot;white-space: pre;&quot;&gt;&#x9;&lt;/span&gt;File 1&lt;span style=&quot;white-space: pre;&quot;&gt;&#x9;&lt;/span&gt;&lt;span style=&quot;white-space: pre;&quot;&gt;&#x9;&lt;/span&gt;&lt;span style=&quot;white-space: pre;&quot;&gt;&#x9;&lt;/span&gt;&lt;span style=&quot;white-space: pre;&quot;&gt;&#x9;&lt;/span&gt;&lt;span style=&quot;white-space: pre;&quot;&gt;&#x9;&lt;/span&gt;&lt;span style=&quot;white-space: pre;&quot;&gt;&#x9;&lt;/span&gt;&lt;span style=&quot;white-space: pre;&quot;&gt;&#x9;&lt;/span&gt;&lt;span style=&quot;white-space: pre;&quot;&gt;&#x9;&lt;/span&gt;&lt;span style=&quot;white-space: pre;&quot;&gt;&#x9;&lt;/span&gt;(date)&lt;span style=&quot;white-space: pre;&quot;&gt;&#x9;&lt;/span&gt;By user 1" style="rounded=1;whiteSpace=wrap;html=1;align=left;" parent="iyYxWgwIjE0jgkwZciX1-45" vertex="1">
          <mxGeometry x="248" y="260" width="412" height="40" as="geometry" />
        </mxCell>
        <mxCell id="iyYxWgwIjE0jgkwZciX1-38" value="&lt;span style=&quot;white-space: pre;&quot;&gt;&#x9;&lt;/span&gt;Folder 2&lt;span style=&quot;white-space: pre;&quot;&gt;&#x9;&lt;/span&gt;&lt;span style=&quot;white-space: pre;&quot;&gt;&#x9;&lt;/span&gt;&lt;span style=&quot;white-space: pre;&quot;&gt;&#x9;&lt;/span&gt;&lt;span style=&quot;white-space: pre;&quot;&gt;&#x9;&lt;/span&gt;&lt;span style=&quot;white-space: pre;&quot;&gt;&#x9;&lt;/span&gt;&lt;span style=&quot;white-space: pre;&quot;&gt;&#x9;&lt;/span&gt;&lt;span style=&quot;white-space: pre;&quot;&gt;&#x9;&lt;/span&gt;&lt;span style=&quot;white-space: pre;&quot;&gt;&#x9;&lt;/span&gt;&lt;span style=&quot;white-space: pre;&quot;&gt;&#x9;&lt;/span&gt;(date)&lt;span style=&quot;white-space: pre;&quot;&gt;&#x9;&lt;/span&gt;By user 2" style="rounded=1;whiteSpace=wrap;html=1;align=left;" parent="iyYxWgwIjE0jgkwZciX1-45" vertex="1">
          <mxGeometry x="248" y="310" width="412" height="40" as="geometry" />
        </mxCell>
        <mxCell id="iyYxWgwIjE0jgkwZciX1-41" value="&lt;span style=&quot;white-space: pre;&quot;&gt;&#x9;&lt;/span&gt;File 1&lt;span style=&quot;white-space: pre;&quot;&gt;&#x9;&lt;/span&gt;&lt;span style=&quot;white-space: pre;&quot;&gt;&#x9;&lt;/span&gt;&lt;span style=&quot;white-space: pre;&quot;&gt;&#x9;&lt;/span&gt;&lt;span style=&quot;white-space: pre;&quot;&gt;&#x9;&lt;/span&gt;&lt;span style=&quot;white-space: pre;&quot;&gt;&#x9;&lt;/span&gt;&lt;span style=&quot;white-space: pre;&quot;&gt;&#x9;&lt;/span&gt;&lt;span style=&quot;white-space: pre;&quot;&gt;&#x9;&lt;/span&gt;&lt;span style=&quot;white-space: pre;&quot;&gt;&#x9;&lt;/span&gt;&lt;span style=&quot;white-space: pre;&quot;&gt;&#x9;&lt;/span&gt;(date)&lt;span style=&quot;white-space: pre;&quot;&gt;&#x9;&lt;/span&gt;By user 1" style="rounded=1;whiteSpace=wrap;html=1;align=left;" parent="iyYxWgwIjE0jgkwZciX1-45" vertex="1">
          <mxGeometry x="248" y="360" width="412" height="40" as="geometry" />
        </mxCell>
        <mxCell id="iyYxWgwIjE0jgkwZciX1-42" value="&lt;span style=&quot;white-space: pre;&quot;&gt;&#x9;&lt;/span&gt;Folder 2&lt;span style=&quot;white-space: pre;&quot;&gt;&#x9;&lt;/span&gt;&lt;span style=&quot;white-space: pre;&quot;&gt;&#x9;&lt;/span&gt;&lt;span style=&quot;white-space: pre;&quot;&gt;&#x9;&lt;/span&gt;&lt;span style=&quot;white-space: pre;&quot;&gt;&#x9;&lt;/span&gt;&lt;span style=&quot;white-space: pre;&quot;&gt;&#x9;&lt;/span&gt;&lt;span style=&quot;white-space: pre;&quot;&gt;&#x9;&lt;/span&gt;&lt;span style=&quot;white-space: pre;&quot;&gt;&#x9;&lt;/span&gt;&lt;span style=&quot;white-space: pre;&quot;&gt;&#x9;&lt;/span&gt;&lt;span style=&quot;white-space: pre;&quot;&gt;&#x9;&lt;/span&gt;(date)&lt;span style=&quot;white-space: pre;&quot;&gt;&#x9;&lt;/span&gt;By user 2" style="rounded=1;whiteSpace=wrap;html=1;align=left;" parent="iyYxWgwIjE0jgkwZciX1-45" vertex="1">
          <mxGeometry x="248" y="410" width="412" height="40" as="geometry" />
        </mxCell>
        <mxCell id="iyYxWgwIjE0jgkwZciX1-43" value="&lt;span style=&quot;white-space: pre;&quot;&gt;&#x9;&lt;/span&gt;File 1&lt;span style=&quot;white-space: pre;&quot;&gt;&#x9;&lt;/span&gt;&lt;span style=&quot;white-space: pre;&quot;&gt;&#x9;&lt;/span&gt;&lt;span style=&quot;white-space: pre;&quot;&gt;&#x9;&lt;/span&gt;&lt;span style=&quot;white-space: pre;&quot;&gt;&#x9;&lt;/span&gt;&lt;span style=&quot;white-space: pre;&quot;&gt;&#x9;&lt;/span&gt;&lt;span style=&quot;white-space: pre;&quot;&gt;&#x9;&lt;/span&gt;&lt;span style=&quot;white-space: pre;&quot;&gt;&#x9;&lt;/span&gt;&lt;span style=&quot;white-space: pre;&quot;&gt;&#x9;&lt;/span&gt;&lt;span style=&quot;white-space: pre;&quot;&gt;&#x9;&lt;/span&gt;(date)&lt;span style=&quot;white-space: pre;&quot;&gt;&#x9;&lt;/span&gt;By user 1" style="rounded=1;whiteSpace=wrap;html=1;align=left;" parent="iyYxWgwIjE0jgkwZciX1-45" vertex="1">
          <mxGeometry x="248" y="460" width="412" height="40" as="geometry" />
        </mxCell>
        <mxCell id="iyYxWgwIjE0jgkwZciX1-47" value="" style="shape=internalStorage;whiteSpace=wrap;html=1;backgroundOutline=1;dx=200;dy=60;" parent="1" vertex="1">
          <mxGeometry x="30" y="10" width="740" height="600" as="geometry" />
        </mxCell>
        <mxCell id="iyYxWgwIjE0jgkwZciX1-48" value="" style="group" parent="1" vertex="1" connectable="0">
          <mxGeometry x="50" y="20" width="150" height="310" as="geometry" />
        </mxCell>
        <mxCell id="iyYxWgwIjE0jgkwZciX1-49" value="PDMS" style="rounded=1;whiteSpace=wrap;html=1;" parent="iyYxWgwIjE0jgkwZciX1-48" vertex="1">
          <mxGeometry width="150" height="40" as="geometry" />
        </mxCell>
        <mxCell id="iyYxWgwIjE0jgkwZciX1-50" value="User Profile" style="rounded=1;whiteSpace=wrap;html=1;" parent="iyYxWgwIjE0jgkwZciX1-48" vertex="1">
          <mxGeometry y="70" width="150" height="40" as="geometry" />
        </mxCell>
        <mxCell id="iyYxWgwIjE0jgkwZciX1-51" value="My Drive" style="rounded=1;whiteSpace=wrap;html=1;" parent="iyYxWgwIjE0jgkwZciX1-48" vertex="1">
          <mxGeometry y="123" width="150" height="40" as="geometry" />
        </mxCell>
        <mxCell id="iyYxWgwIjE0jgkwZciX1-52" value="Share with me" style="rounded=1;whiteSpace=wrap;html=1;" parent="iyYxWgwIjE0jgkwZciX1-48" vertex="1">
          <mxGeometry y="173" width="150" height="40" as="geometry" />
        </mxCell>
        <mxCell id="iyYxWgwIjE0jgkwZciX1-53" value="Trash" style="rounded=1;whiteSpace=wrap;html=1;" parent="iyYxWgwIjE0jgkwZciX1-48" vertex="1">
          <mxGeometry y="223" width="150" height="40" as="geometry" />
        </mxCell>
        <mxCell id="iyYxWgwIjE0jgkwZciX1-54" style="edgeStyle=orthogonalEdgeStyle;rounded=0;orthogonalLoop=1;jettySize=auto;html=1;exitX=0.5;exitY=1;exitDx=0;exitDy=0;" parent="iyYxWgwIjE0jgkwZciX1-48" source="iyYxWgwIjE0jgkwZciX1-51" target="iyYxWgwIjE0jgkwZciX1-51" edge="1">
          <mxGeometry relative="1" as="geometry" />
        </mxCell>
        <mxCell id="iyYxWgwIjE0jgkwZciX1-55" value="" style="group" parent="1" vertex="1" connectable="0">
          <mxGeometry x="398" y="20" width="200" height="40" as="geometry" />
        </mxCell>
        <mxCell id="iyYxWgwIjE0jgkwZciX1-56" value="Search" style="rounded=1;whiteSpace=wrap;html=1;" parent="iyYxWgwIjE0jgkwZciX1-55" vertex="1">
          <mxGeometry width="150" height="40" as="geometry" />
        </mxCell>
        <mxCell id="iyYxWgwIjE0jgkwZciX1-57" value="fliter" style="rounded=1;whiteSpace=wrap;html=1;" parent="iyYxWgwIjE0jgkwZciX1-55" vertex="1">
          <mxGeometry x="160" width="40" height="40" as="geometry" />
        </mxCell>
        <mxCell id="iyYxWgwIjE0jgkwZciX1-58" value="Upload" style="rounded=1;whiteSpace=wrap;html=1;" parent="1" vertex="1">
          <mxGeometry x="610" y="20" width="60" height="40" as="geometry" />
        </mxCell>
        <mxCell id="iyYxWgwIjE0jgkwZciX1-59" value="Create" style="rounded=1;whiteSpace=wrap;html=1;" parent="1" vertex="1">
          <mxGeometry x="680" y="20" width="60" height="40" as="geometry" />
        </mxCell>
        <mxCell id="iyYxWgwIjE0jgkwZciX1-60" value="&lt;b&gt;&lt;u&gt;My Drive&lt;/u&gt;&lt;/b&gt;" style="text;html=1;align=center;verticalAlign=middle;whiteSpace=wrap;rounded=0;" parent="1" vertex="1">
          <mxGeometry x="250" y="25" width="60" height="30" as="geometry" />
        </mxCell>
        <mxCell id="iyYxWgwIjE0jgkwZciX1-61" value="" style="rounded=0;whiteSpace=wrap;html=1;" parent="1" vertex="1">
          <mxGeometry x="240" y="90" width="390" height="480" as="geometry" />
        </mxCell>
        <mxCell id="ZPulBIP09_x_4onrMym9-1" value="" style="rounded=0;whiteSpace=wrap;html=1;" vertex="1" parent="1">
          <mxGeometry x="640" y="90" width="120" height="170" as="geometry" />
        </mxCell>
        <mxCell id="ZPulBIP09_x_4onrMym9-2" value="" style="rounded=0;whiteSpace=wrap;html=1;" vertex="1" parent="1">
          <mxGeometry x="640" y="270" width="120" height="300" as="geometry" />
        </mxCell>
        <mxCell id="ZPulBIP09_x_4onrMym9-3" value="Members&amp;nbsp; &amp;nbsp; &amp;nbsp;&amp;nbsp;" style="rounded=0;whiteSpace=wrap;html=1;" vertex="1" parent="1">
          <mxGeometry x="640" y="90" width="120" height="30" as="geometry" />
        </mxCell>
        <mxCell id="ZPulBIP09_x_4onrMym9-5" value="+" style="rounded=1;whiteSpace=wrap;html=1;" vertex="1" parent="1">
          <mxGeometry x="730" y="95" width="20" height="20" as="geometry" />
        </mxCell>
        <mxCell id="ZPulBIP09_x_4onrMym9-11" value="" style="group" vertex="1" connectable="0" parent="1">
          <mxGeometry x="647.5" y="160" width="105" height="20" as="geometry" />
        </mxCell>
        <mxCell id="ZPulBIP09_x_4onrMym9-12" value="User 2" style="rounded=1;whiteSpace=wrap;html=1;align=left;" vertex="1" parent="ZPulBIP09_x_4onrMym9-11">
          <mxGeometry width="105" height="20" as="geometry" />
        </mxCell>
        <mxCell id="ZPulBIP09_x_4onrMym9-13" value="edit" style="rounded=1;whiteSpace=wrap;html=1;" vertex="1" parent="ZPulBIP09_x_4onrMym9-11">
          <mxGeometry x="75" y="5" width="27.5" height="10" as="geometry" />
        </mxCell>
        <mxCell id="ZPulBIP09_x_4onrMym9-22" value="&lt;font style=&quot;font-size: 6px;&quot;&gt;Status&lt;/font&gt;" style="rounded=1;whiteSpace=wrap;html=1;" vertex="1" parent="ZPulBIP09_x_4onrMym9-11">
          <mxGeometry x="45.5" y="5" width="27.5" height="10" as="geometry" />
        </mxCell>
        <mxCell id="ZPulBIP09_x_4onrMym9-14" value="" style="group" vertex="1" connectable="0" parent="1">
          <mxGeometry x="647.5" y="189" width="105" height="20" as="geometry" />
        </mxCell>
        <mxCell id="ZPulBIP09_x_4onrMym9-15" value="User 3" style="rounded=1;whiteSpace=wrap;html=1;align=left;" vertex="1" parent="ZPulBIP09_x_4onrMym9-14">
          <mxGeometry width="105" height="20" as="geometry" />
        </mxCell>
        <mxCell id="ZPulBIP09_x_4onrMym9-16" value="edit" style="rounded=1;whiteSpace=wrap;html=1;" vertex="1" parent="ZPulBIP09_x_4onrMym9-14">
          <mxGeometry x="75" y="5" width="27.5" height="10" as="geometry" />
        </mxCell>
        <mxCell id="ZPulBIP09_x_4onrMym9-31" value="&lt;font style=&quot;font-size: 6px;&quot;&gt;Status&lt;/font&gt;" style="rounded=1;whiteSpace=wrap;html=1;" vertex="1" parent="ZPulBIP09_x_4onrMym9-14">
          <mxGeometry x="45.5" y="5" width="27.5" height="10" as="geometry" />
        </mxCell>
        <mxCell id="ZPulBIP09_x_4onrMym9-17" value="" style="group" vertex="1" connectable="0" parent="1">
          <mxGeometry x="648" y="217" width="105" height="20" as="geometry" />
        </mxCell>
        <mxCell id="ZPulBIP09_x_4onrMym9-18" value="User 4" style="rounded=1;whiteSpace=wrap;html=1;align=left;" vertex="1" parent="ZPulBIP09_x_4onrMym9-17">
          <mxGeometry width="105" height="20" as="geometry" />
        </mxCell>
        <mxCell id="ZPulBIP09_x_4onrMym9-19" value="edit" style="rounded=1;whiteSpace=wrap;html=1;" vertex="1" parent="ZPulBIP09_x_4onrMym9-17">
          <mxGeometry x="75" y="5" width="27.5" height="10" as="geometry" />
        </mxCell>
        <mxCell id="ZPulBIP09_x_4onrMym9-32" value="&lt;font style=&quot;font-size: 6px;&quot;&gt;Status&lt;/font&gt;" style="rounded=1;whiteSpace=wrap;html=1;" vertex="1" parent="ZPulBIP09_x_4onrMym9-17">
          <mxGeometry x="45.5" y="5" width="27.5" height="10" as="geometry" />
        </mxCell>
        <mxCell id="ZPulBIP09_x_4onrMym9-6" value="User 1" style="rounded=1;whiteSpace=wrap;html=1;align=left;" vertex="1" parent="1">
          <mxGeometry x="647.5" y="130" width="105" height="20" as="geometry" />
        </mxCell>
        <mxCell id="ZPulBIP09_x_4onrMym9-145" style="edgeStyle=orthogonalEdgeStyle;rounded=0;orthogonalLoop=1;jettySize=auto;html=1;" edge="1" parent="1" source="ZPulBIP09_x_4onrMym9-7" target="ZPulBIP09_x_4onrMym9-146">
          <mxGeometry relative="1" as="geometry">
            <mxPoint x="800" y="140" as="targetPoint" />
          </mxGeometry>
        </mxCell>
        <mxCell id="ZPulBIP09_x_4onrMym9-7" value="edit" style="rounded=1;whiteSpace=wrap;html=1;" vertex="1" parent="1">
          <mxGeometry x="722.5" y="135" width="27.5" height="10" as="geometry" />
        </mxCell>
        <mxCell id="ZPulBIP09_x_4onrMym9-20" value="&lt;font style=&quot;font-size: 6px;&quot;&gt;Status&lt;/font&gt;" style="rounded=1;whiteSpace=wrap;html=1;" vertex="1" parent="1">
          <mxGeometry x="692" y="135" width="27.5" height="10" as="geometry" />
        </mxCell>
        <mxCell id="ZPulBIP09_x_4onrMym9-33" value="Revision" style="rounded=0;whiteSpace=wrap;html=1;" vertex="1" parent="1">
          <mxGeometry x="640" y="270" width="120" height="30" as="geometry" />
        </mxCell>
        <mxCell id="ZPulBIP09_x_4onrMym9-35" value="" style="group" vertex="1" connectable="0" parent="1">
          <mxGeometry x="650" y="310" width="105" height="20" as="geometry" />
        </mxCell>
        <mxCell id="ZPulBIP09_x_4onrMym9-36" value="User 1" style="rounded=1;whiteSpace=wrap;html=1;align=left;" vertex="1" parent="ZPulBIP09_x_4onrMym9-35">
          <mxGeometry width="105" height="20" as="geometry" />
        </mxCell>
        <mxCell id="ZPulBIP09_x_4onrMym9-37" value="edit" style="rounded=1;whiteSpace=wrap;html=1;" vertex="1" parent="ZPulBIP09_x_4onrMym9-35">
          <mxGeometry x="75" y="5" width="27.5" height="10" as="geometry" />
        </mxCell>
        <mxCell id="ZPulBIP09_x_4onrMym9-38" value="&lt;font style=&quot;font-size: 6px;&quot;&gt;date&lt;/font&gt;" style="rounded=1;whiteSpace=wrap;html=1;" vertex="1" parent="ZPulBIP09_x_4onrMym9-35">
          <mxGeometry x="45.5" y="5" width="27.5" height="10" as="geometry" />
        </mxCell>
        <mxCell id="ZPulBIP09_x_4onrMym9-39" value="" style="group" vertex="1" connectable="0" parent="1">
          <mxGeometry x="650" y="340" width="105" height="20" as="geometry" />
        </mxCell>
        <mxCell id="ZPulBIP09_x_4onrMym9-40" value="User 2" style="rounded=1;whiteSpace=wrap;html=1;align=left;" vertex="1" parent="ZPulBIP09_x_4onrMym9-39">
          <mxGeometry width="105" height="20" as="geometry" />
        </mxCell>
        <mxCell id="ZPulBIP09_x_4onrMym9-41" value="edit" style="rounded=1;whiteSpace=wrap;html=1;" vertex="1" parent="ZPulBIP09_x_4onrMym9-39">
          <mxGeometry x="75" y="5" width="27.5" height="10" as="geometry" />
        </mxCell>
        <mxCell id="ZPulBIP09_x_4onrMym9-42" value="&lt;font style=&quot;font-size: 6px;&quot;&gt;date&lt;/font&gt;" style="rounded=1;whiteSpace=wrap;html=1;" vertex="1" parent="ZPulBIP09_x_4onrMym9-39">
          <mxGeometry x="45.5" y="5" width="27.5" height="10" as="geometry" />
        </mxCell>
        <mxCell id="ZPulBIP09_x_4onrMym9-43" value="" style="group" vertex="1" connectable="0" parent="1">
          <mxGeometry x="650" y="370" width="105" height="20" as="geometry" />
        </mxCell>
        <mxCell id="ZPulBIP09_x_4onrMym9-44" value="User 3" style="rounded=1;whiteSpace=wrap;html=1;align=left;" vertex="1" parent="ZPulBIP09_x_4onrMym9-43">
          <mxGeometry width="105" height="20" as="geometry" />
        </mxCell>
        <mxCell id="ZPulBIP09_x_4onrMym9-45" value="edit" style="rounded=1;whiteSpace=wrap;html=1;" vertex="1" parent="ZPulBIP09_x_4onrMym9-43">
          <mxGeometry x="75" y="5" width="27.5" height="10" as="geometry" />
        </mxCell>
        <mxCell id="ZPulBIP09_x_4onrMym9-46" value="&lt;font style=&quot;font-size: 6px;&quot;&gt;date&lt;/font&gt;" style="rounded=1;whiteSpace=wrap;html=1;" vertex="1" parent="ZPulBIP09_x_4onrMym9-43">
          <mxGeometry x="45.5" y="5" width="27.5" height="10" as="geometry" />
        </mxCell>
        <mxCell id="ZPulBIP09_x_4onrMym9-47" value="folder 1" style="rounded=1;whiteSpace=wrap;html=1;align=left;" vertex="1" parent="1">
          <mxGeometry x="280" y="115" width="320" height="25" as="geometry" />
        </mxCell>
        <mxCell id="ZPulBIP09_x_4onrMym9-48" value="Folder 1 sub" style="rounded=1;whiteSpace=wrap;html=1;align=left;" vertex="1" parent="1">
          <mxGeometry x="300" y="150" width="300" height="25" as="geometry" />
        </mxCell>
        <mxCell id="ZPulBIP09_x_4onrMym9-49" value="sub sub" style="rounded=1;whiteSpace=wrap;html=1;align=left;" vertex="1" parent="1">
          <mxGeometry x="320" y="186.5" width="280" height="25" as="geometry" />
        </mxCell>
        <mxCell id="ZPulBIP09_x_4onrMym9-50" value="sub sub sub" style="rounded=1;whiteSpace=wrap;html=1;align=left;" vertex="1" parent="1">
          <mxGeometry x="340" y="220" width="260" height="25" as="geometry" />
        </mxCell>
        <mxCell id="ZPulBIP09_x_4onrMym9-51" value="&lt;font style=&quot;font-size: 10px;&quot;&gt;final(if click enter the foler and see another sub)&lt;/font&gt;" style="rounded=1;whiteSpace=wrap;html=1;" vertex="1" parent="1">
          <mxGeometry x="360" y="260" width="240" height="25" as="geometry" />
        </mxCell>
        <mxCell id="ZPulBIP09_x_4onrMym9-56" value="" style="triangle;whiteSpace=wrap;html=1;rotation=90;" vertex="1" parent="1">
          <mxGeometry x="265" y="124" width="10" height="10" as="geometry" />
        </mxCell>
        <mxCell id="ZPulBIP09_x_4onrMym9-59" value="" style="triangle;whiteSpace=wrap;html=1;rotation=90;" vertex="1" parent="1">
          <mxGeometry x="280" y="157.5" width="10" height="10" as="geometry" />
        </mxCell>
        <mxCell id="ZPulBIP09_x_4onrMym9-60" value="" style="triangle;whiteSpace=wrap;html=1;rotation=90;" vertex="1" parent="1">
          <mxGeometry x="300" y="194" width="10" height="10" as="geometry" />
        </mxCell>
        <mxCell id="ZPulBIP09_x_4onrMym9-61" value="" style="triangle;whiteSpace=wrap;html=1;rotation=90;" vertex="1" parent="1">
          <mxGeometry x="320" y="227.5" width="10" height="10" as="geometry" />
        </mxCell>
        <mxCell id="ZPulBIP09_x_4onrMym9-65" value="" style="group" vertex="1" connectable="0" parent="1">
          <mxGeometry x="265" y="307.5" width="335" height="25" as="geometry" />
        </mxCell>
        <mxCell id="ZPulBIP09_x_4onrMym9-52" value="Folder 2" style="rounded=1;whiteSpace=wrap;html=1;align=left;" vertex="1" parent="ZPulBIP09_x_4onrMym9-65">
          <mxGeometry x="15" width="320" height="25" as="geometry" />
        </mxCell>
        <mxCell id="ZPulBIP09_x_4onrMym9-63" value="" style="triangle;whiteSpace=wrap;html=1;rotation=0;" vertex="1" parent="ZPulBIP09_x_4onrMym9-65">
          <mxGeometry y="7.5" width="10" height="10" as="geometry" />
        </mxCell>
        <mxCell id="ZPulBIP09_x_4onrMym9-66" value="" style="group" vertex="1" connectable="0" parent="1">
          <mxGeometry x="265" y="345" width="335" height="25" as="geometry" />
        </mxCell>
        <mxCell id="ZPulBIP09_x_4onrMym9-67" value="Folder 3" style="rounded=1;whiteSpace=wrap;html=1;align=left;" vertex="1" parent="ZPulBIP09_x_4onrMym9-66">
          <mxGeometry x="15" width="320" height="25" as="geometry" />
        </mxCell>
        <mxCell id="ZPulBIP09_x_4onrMym9-68" value="" style="triangle;whiteSpace=wrap;html=1;rotation=0;" vertex="1" parent="ZPulBIP09_x_4onrMym9-66">
          <mxGeometry y="7.5" width="10" height="10" as="geometry" />
        </mxCell>
        <mxCell id="ZPulBIP09_x_4onrMym9-76" value="" style="shape=internalStorage;whiteSpace=wrap;html=1;backgroundOutline=1;dx=200;dy=60;" vertex="1" parent="1">
          <mxGeometry x="910" y="10" width="740" height="600" as="geometry" />
        </mxCell>
        <mxCell id="ZPulBIP09_x_4onrMym9-77" value="" style="group" vertex="1" connectable="0" parent="1">
          <mxGeometry x="930" y="20" width="150" height="310" as="geometry" />
        </mxCell>
        <mxCell id="ZPulBIP09_x_4onrMym9-78" value="PDMS" style="rounded=1;whiteSpace=wrap;html=1;" vertex="1" parent="ZPulBIP09_x_4onrMym9-77">
          <mxGeometry width="150" height="40" as="geometry" />
        </mxCell>
        <mxCell id="ZPulBIP09_x_4onrMym9-79" value="User Profile" style="rounded=1;whiteSpace=wrap;html=1;" vertex="1" parent="ZPulBIP09_x_4onrMym9-77">
          <mxGeometry y="70" width="150" height="40" as="geometry" />
        </mxCell>
        <mxCell id="ZPulBIP09_x_4onrMym9-80" value="My Drive" style="rounded=1;whiteSpace=wrap;html=1;" vertex="1" parent="ZPulBIP09_x_4onrMym9-77">
          <mxGeometry y="123" width="150" height="40" as="geometry" />
        </mxCell>
        <mxCell id="ZPulBIP09_x_4onrMym9-81" value="Share with me" style="rounded=1;whiteSpace=wrap;html=1;" vertex="1" parent="ZPulBIP09_x_4onrMym9-77">
          <mxGeometry y="173" width="150" height="40" as="geometry" />
        </mxCell>
        <mxCell id="ZPulBIP09_x_4onrMym9-82" value="Trash" style="rounded=1;whiteSpace=wrap;html=1;" vertex="1" parent="ZPulBIP09_x_4onrMym9-77">
          <mxGeometry y="223" width="150" height="40" as="geometry" />
        </mxCell>
        <mxCell id="ZPulBIP09_x_4onrMym9-83" style="edgeStyle=orthogonalEdgeStyle;rounded=0;orthogonalLoop=1;jettySize=auto;html=1;exitX=0.5;exitY=1;exitDx=0;exitDy=0;" edge="1" parent="ZPulBIP09_x_4onrMym9-77" source="ZPulBIP09_x_4onrMym9-80" target="ZPulBIP09_x_4onrMym9-80">
          <mxGeometry relative="1" as="geometry" />
        </mxCell>
        <mxCell id="ZPulBIP09_x_4onrMym9-84" value="" style="group" vertex="1" connectable="0" parent="1">
          <mxGeometry x="1278" y="20" width="200" height="40" as="geometry" />
        </mxCell>
        <mxCell id="ZPulBIP09_x_4onrMym9-85" value="Search" style="rounded=1;whiteSpace=wrap;html=1;" vertex="1" parent="ZPulBIP09_x_4onrMym9-84">
          <mxGeometry width="150" height="40" as="geometry" />
        </mxCell>
        <mxCell id="ZPulBIP09_x_4onrMym9-86" value="fliter" style="rounded=1;whiteSpace=wrap;html=1;" vertex="1" parent="ZPulBIP09_x_4onrMym9-84">
          <mxGeometry x="160" width="40" height="40" as="geometry" />
        </mxCell>
        <mxCell id="ZPulBIP09_x_4onrMym9-87" value="Upload" style="rounded=1;whiteSpace=wrap;html=1;" vertex="1" parent="1">
          <mxGeometry x="1490" y="20" width="60" height="40" as="geometry" />
        </mxCell>
        <mxCell id="ZPulBIP09_x_4onrMym9-88" value="Create" style="rounded=1;whiteSpace=wrap;html=1;" vertex="1" parent="1">
          <mxGeometry x="1560" y="20" width="60" height="40" as="geometry" />
        </mxCell>
        <mxCell id="ZPulBIP09_x_4onrMym9-89" value="&lt;b&gt;&lt;u&gt;Share with me&lt;/u&gt;&lt;/b&gt;" style="text;html=1;align=center;verticalAlign=middle;whiteSpace=wrap;rounded=0;" vertex="1" parent="1">
          <mxGeometry x="1130" y="25" width="90" height="30" as="geometry" />
        </mxCell>
        <mxCell id="ZPulBIP09_x_4onrMym9-90" value="" style="rounded=0;whiteSpace=wrap;html=1;" vertex="1" parent="1">
          <mxGeometry x="1120" y="90" width="390" height="480" as="geometry" />
        </mxCell>
        <mxCell id="ZPulBIP09_x_4onrMym9-91" value="" style="rounded=0;whiteSpace=wrap;html=1;" vertex="1" parent="1">
          <mxGeometry x="1520" y="90" width="120" height="170" as="geometry" />
        </mxCell>
        <mxCell id="ZPulBIP09_x_4onrMym9-92" value="" style="rounded=0;whiteSpace=wrap;html=1;" vertex="1" parent="1">
          <mxGeometry x="1520" y="270" width="120" height="300" as="geometry" />
        </mxCell>
        <mxCell id="ZPulBIP09_x_4onrMym9-93" value="Members&amp;nbsp; &amp;nbsp; &amp;nbsp;&amp;nbsp;" style="rounded=0;whiteSpace=wrap;html=1;" vertex="1" parent="1">
          <mxGeometry x="1520" y="90" width="120" height="30" as="geometry" />
        </mxCell>
        <mxCell id="ZPulBIP09_x_4onrMym9-94" value="+" style="rounded=1;whiteSpace=wrap;html=1;" vertex="1" parent="1">
          <mxGeometry x="1610" y="95" width="20" height="20" as="geometry" />
        </mxCell>
        <mxCell id="ZPulBIP09_x_4onrMym9-95" value="" style="group" vertex="1" connectable="0" parent="1">
          <mxGeometry x="1527.5" y="160" width="105" height="20" as="geometry" />
        </mxCell>
        <mxCell id="ZPulBIP09_x_4onrMym9-96" value="User 2" style="rounded=1;whiteSpace=wrap;html=1;align=left;" vertex="1" parent="ZPulBIP09_x_4onrMym9-95">
          <mxGeometry width="105" height="20" as="geometry" />
        </mxCell>
        <mxCell id="ZPulBIP09_x_4onrMym9-97" value="edit" style="rounded=1;whiteSpace=wrap;html=1;" vertex="1" parent="ZPulBIP09_x_4onrMym9-95">
          <mxGeometry x="75" y="5" width="27.5" height="10" as="geometry" />
        </mxCell>
        <mxCell id="ZPulBIP09_x_4onrMym9-98" value="&lt;font style=&quot;font-size: 6px;&quot;&gt;Status&lt;/font&gt;" style="rounded=1;whiteSpace=wrap;html=1;" vertex="1" parent="ZPulBIP09_x_4onrMym9-95">
          <mxGeometry x="45.5" y="5" width="27.5" height="10" as="geometry" />
        </mxCell>
        <mxCell id="ZPulBIP09_x_4onrMym9-99" value="" style="group" vertex="1" connectable="0" parent="1">
          <mxGeometry x="1527.5" y="189" width="105" height="20" as="geometry" />
        </mxCell>
        <mxCell id="ZPulBIP09_x_4onrMym9-100" value="User 3" style="rounded=1;whiteSpace=wrap;html=1;align=left;" vertex="1" parent="ZPulBIP09_x_4onrMym9-99">
          <mxGeometry width="105" height="20" as="geometry" />
        </mxCell>
        <mxCell id="ZPulBIP09_x_4onrMym9-101" value="edit" style="rounded=1;whiteSpace=wrap;html=1;" vertex="1" parent="ZPulBIP09_x_4onrMym9-99">
          <mxGeometry x="75" y="5" width="27.5" height="10" as="geometry" />
        </mxCell>
        <mxCell id="ZPulBIP09_x_4onrMym9-102" value="&lt;font style=&quot;font-size: 6px;&quot;&gt;Status&lt;/font&gt;" style="rounded=1;whiteSpace=wrap;html=1;" vertex="1" parent="ZPulBIP09_x_4onrMym9-99">
          <mxGeometry x="45.5" y="5" width="27.5" height="10" as="geometry" />
        </mxCell>
        <mxCell id="ZPulBIP09_x_4onrMym9-103" value="" style="group" vertex="1" connectable="0" parent="1">
          <mxGeometry x="1528" y="217" width="105" height="20" as="geometry" />
        </mxCell>
        <mxCell id="ZPulBIP09_x_4onrMym9-104" value="User 4" style="rounded=1;whiteSpace=wrap;html=1;align=left;" vertex="1" parent="ZPulBIP09_x_4onrMym9-103">
          <mxGeometry width="105" height="20" as="geometry" />
        </mxCell>
        <mxCell id="ZPulBIP09_x_4onrMym9-105" value="edit" style="rounded=1;whiteSpace=wrap;html=1;" vertex="1" parent="ZPulBIP09_x_4onrMym9-103">
          <mxGeometry x="75" y="5" width="27.5" height="10" as="geometry" />
        </mxCell>
        <mxCell id="ZPulBIP09_x_4onrMym9-106" value="&lt;font style=&quot;font-size: 6px;&quot;&gt;Status&lt;/font&gt;" style="rounded=1;whiteSpace=wrap;html=1;" vertex="1" parent="ZPulBIP09_x_4onrMym9-103">
          <mxGeometry x="45.5" y="5" width="27.5" height="10" as="geometry" />
        </mxCell>
        <mxCell id="ZPulBIP09_x_4onrMym9-107" value="User 1" style="rounded=1;whiteSpace=wrap;html=1;align=left;" vertex="1" parent="1">
          <mxGeometry x="1527.5" y="130" width="105" height="20" as="geometry" />
        </mxCell>
        <mxCell id="ZPulBIP09_x_4onrMym9-108" value="edit" style="rounded=1;whiteSpace=wrap;html=1;" vertex="1" parent="1">
          <mxGeometry x="1602.5" y="135" width="27.5" height="10" as="geometry" />
        </mxCell>
        <mxCell id="ZPulBIP09_x_4onrMym9-109" value="&lt;font style=&quot;font-size: 6px;&quot;&gt;Status&lt;/font&gt;" style="rounded=1;whiteSpace=wrap;html=1;" vertex="1" parent="1">
          <mxGeometry x="1572" y="135" width="27.5" height="10" as="geometry" />
        </mxCell>
        <mxCell id="ZPulBIP09_x_4onrMym9-110" value="Revision" style="rounded=0;whiteSpace=wrap;html=1;" vertex="1" parent="1">
          <mxGeometry x="1520" y="270" width="120" height="30" as="geometry" />
        </mxCell>
        <mxCell id="ZPulBIP09_x_4onrMym9-111" value="" style="group" vertex="1" connectable="0" parent="1">
          <mxGeometry x="1530" y="310" width="105" height="20" as="geometry" />
        </mxCell>
        <mxCell id="ZPulBIP09_x_4onrMym9-112" value="User 1" style="rounded=1;whiteSpace=wrap;html=1;align=left;" vertex="1" parent="ZPulBIP09_x_4onrMym9-111">
          <mxGeometry width="105" height="20" as="geometry" />
        </mxCell>
        <mxCell id="ZPulBIP09_x_4onrMym9-113" value="edit" style="rounded=1;whiteSpace=wrap;html=1;" vertex="1" parent="ZPulBIP09_x_4onrMym9-111">
          <mxGeometry x="75" y="5" width="27.5" height="10" as="geometry" />
        </mxCell>
        <mxCell id="ZPulBIP09_x_4onrMym9-114" value="&lt;font style=&quot;font-size: 6px;&quot;&gt;date&lt;/font&gt;" style="rounded=1;whiteSpace=wrap;html=1;" vertex="1" parent="ZPulBIP09_x_4onrMym9-111">
          <mxGeometry x="45.5" y="5" width="27.5" height="10" as="geometry" />
        </mxCell>
        <mxCell id="ZPulBIP09_x_4onrMym9-115" value="" style="group" vertex="1" connectable="0" parent="1">
          <mxGeometry x="1530" y="340" width="105" height="20" as="geometry" />
        </mxCell>
        <mxCell id="ZPulBIP09_x_4onrMym9-116" value="User 2" style="rounded=1;whiteSpace=wrap;html=1;align=left;" vertex="1" parent="ZPulBIP09_x_4onrMym9-115">
          <mxGeometry width="105" height="20" as="geometry" />
        </mxCell>
        <mxCell id="ZPulBIP09_x_4onrMym9-117" value="edit" style="rounded=1;whiteSpace=wrap;html=1;" vertex="1" parent="ZPulBIP09_x_4onrMym9-115">
          <mxGeometry x="75" y="5" width="27.5" height="10" as="geometry" />
        </mxCell>
        <mxCell id="ZPulBIP09_x_4onrMym9-118" value="&lt;font style=&quot;font-size: 6px;&quot;&gt;date&lt;/font&gt;" style="rounded=1;whiteSpace=wrap;html=1;" vertex="1" parent="ZPulBIP09_x_4onrMym9-115">
          <mxGeometry x="45.5" y="5" width="27.5" height="10" as="geometry" />
        </mxCell>
        <mxCell id="ZPulBIP09_x_4onrMym9-119" value="" style="group" vertex="1" connectable="0" parent="1">
          <mxGeometry x="1530" y="370" width="105" height="20" as="geometry" />
        </mxCell>
        <mxCell id="ZPulBIP09_x_4onrMym9-120" value="User 3" style="rounded=1;whiteSpace=wrap;html=1;align=left;" vertex="1" parent="ZPulBIP09_x_4onrMym9-119">
          <mxGeometry width="105" height="20" as="geometry" />
        </mxCell>
        <mxCell id="ZPulBIP09_x_4onrMym9-121" value="edit" style="rounded=1;whiteSpace=wrap;html=1;" vertex="1" parent="ZPulBIP09_x_4onrMym9-119">
          <mxGeometry x="75" y="5" width="27.5" height="10" as="geometry" />
        </mxCell>
        <mxCell id="ZPulBIP09_x_4onrMym9-122" value="&lt;font style=&quot;font-size: 6px;&quot;&gt;date&lt;/font&gt;" style="rounded=1;whiteSpace=wrap;html=1;" vertex="1" parent="ZPulBIP09_x_4onrMym9-119">
          <mxGeometry x="45.5" y="5" width="27.5" height="10" as="geometry" />
        </mxCell>
        <mxCell id="ZPulBIP09_x_4onrMym9-123" value="User 1 Drive" style="rounded=1;whiteSpace=wrap;html=1;align=left;" vertex="1" parent="1">
          <mxGeometry x="1160" y="115" width="320" height="25" as="geometry" />
        </mxCell>
        <mxCell id="ZPulBIP09_x_4onrMym9-124" value="User 1 file i have access" style="rounded=1;whiteSpace=wrap;html=1;" vertex="1" parent="1">
          <mxGeometry x="1180" y="150" width="300" height="25" as="geometry" />
        </mxCell>
        <mxCell id="ZPulBIP09_x_4onrMym9-125" value="User 1 file i have access" style="rounded=1;whiteSpace=wrap;html=1;" vertex="1" parent="1">
          <mxGeometry x="1200" y="186.5" width="280" height="25" as="geometry" />
        </mxCell>
        <mxCell id="ZPulBIP09_x_4onrMym9-126" value="User 1 file i have access" style="rounded=1;whiteSpace=wrap;html=1;" vertex="1" parent="1">
          <mxGeometry x="1220" y="220" width="260" height="25" as="geometry" />
        </mxCell>
        <mxCell id="ZPulBIP09_x_4onrMym9-127" value="User 1 file i have access" style="rounded=1;whiteSpace=wrap;html=1;" vertex="1" parent="1">
          <mxGeometry x="1240" y="260" width="240" height="25" as="geometry" />
        </mxCell>
        <mxCell id="ZPulBIP09_x_4onrMym9-128" value="" style="triangle;whiteSpace=wrap;html=1;rotation=90;" vertex="1" parent="1">
          <mxGeometry x="1145" y="124" width="10" height="10" as="geometry" />
        </mxCell>
        <mxCell id="ZPulBIP09_x_4onrMym9-129" value="" style="triangle;whiteSpace=wrap;html=1;rotation=90;" vertex="1" parent="1">
          <mxGeometry x="1160" y="157.5" width="10" height="10" as="geometry" />
        </mxCell>
        <mxCell id="ZPulBIP09_x_4onrMym9-130" value="" style="triangle;whiteSpace=wrap;html=1;rotation=90;" vertex="1" parent="1">
          <mxGeometry x="1180" y="194" width="10" height="10" as="geometry" />
        </mxCell>
        <mxCell id="ZPulBIP09_x_4onrMym9-131" value="" style="triangle;whiteSpace=wrap;html=1;rotation=90;" vertex="1" parent="1">
          <mxGeometry x="1200" y="227.5" width="10" height="10" as="geometry" />
        </mxCell>
        <mxCell id="ZPulBIP09_x_4onrMym9-132" value="" style="group" vertex="1" connectable="0" parent="1">
          <mxGeometry x="1145" y="307.5" width="335" height="25" as="geometry" />
        </mxCell>
        <mxCell id="ZPulBIP09_x_4onrMym9-133" value="User 2 Drive" style="rounded=1;whiteSpace=wrap;html=1;align=left;" vertex="1" parent="ZPulBIP09_x_4onrMym9-132">
          <mxGeometry x="15" width="320" height="25" as="geometry" />
        </mxCell>
        <mxCell id="ZPulBIP09_x_4onrMym9-134" value="" style="triangle;whiteSpace=wrap;html=1;rotation=0;" vertex="1" parent="ZPulBIP09_x_4onrMym9-132">
          <mxGeometry y="7.5" width="10" height="10" as="geometry" />
        </mxCell>
        <mxCell id="ZPulBIP09_x_4onrMym9-135" value="" style="group" vertex="1" connectable="0" parent="1">
          <mxGeometry x="1145" y="345" width="335" height="25" as="geometry" />
        </mxCell>
        <mxCell id="ZPulBIP09_x_4onrMym9-136" value="User 3 Drive" style="rounded=1;whiteSpace=wrap;html=1;align=left;" vertex="1" parent="ZPulBIP09_x_4onrMym9-135">
          <mxGeometry x="15" width="320" height="25" as="geometry" />
        </mxCell>
        <mxCell id="ZPulBIP09_x_4onrMym9-137" value="" style="triangle;whiteSpace=wrap;html=1;rotation=0;" vertex="1" parent="ZPulBIP09_x_4onrMym9-135">
          <mxGeometry y="7.5" width="10" height="10" as="geometry" />
        </mxCell>
        <mxCell id="ZPulBIP09_x_4onrMym9-138" value="" style="group" vertex="1" connectable="0" parent="1">
          <mxGeometry x="1145" y="380" width="335" height="25" as="geometry" />
        </mxCell>
        <mxCell id="ZPulBIP09_x_4onrMym9-139" value="User 4 Drive" style="rounded=1;whiteSpace=wrap;html=1;align=left;" vertex="1" parent="ZPulBIP09_x_4onrMym9-138">
          <mxGeometry x="15" width="320" height="25" as="geometry" />
        </mxCell>
        <mxCell id="ZPulBIP09_x_4onrMym9-140" value="" style="triangle;whiteSpace=wrap;html=1;rotation=0;" vertex="1" parent="ZPulBIP09_x_4onrMym9-138">
          <mxGeometry y="7.5" width="10" height="10" as="geometry" />
        </mxCell>
        <mxCell id="ZPulBIP09_x_4onrMym9-141" value="" style="group" vertex="1" connectable="0" parent="1">
          <mxGeometry x="1145" y="410" width="335" height="25" as="geometry" />
        </mxCell>
        <mxCell id="ZPulBIP09_x_4onrMym9-142" value="User 5 Drive" style="rounded=1;whiteSpace=wrap;html=1;align=left;" vertex="1" parent="ZPulBIP09_x_4onrMym9-141">
          <mxGeometry x="15" width="320" height="25" as="geometry" />
        </mxCell>
        <mxCell id="ZPulBIP09_x_4onrMym9-143" value="" style="triangle;whiteSpace=wrap;html=1;rotation=0;" vertex="1" parent="ZPulBIP09_x_4onrMym9-141">
          <mxGeometry y="7.5" width="10" height="10" as="geometry" />
        </mxCell>
        <mxCell id="ZPulBIP09_x_4onrMym9-150" value="" style="edgeStyle=orthogonalEdgeStyle;rounded=0;orthogonalLoop=1;jettySize=auto;html=1;" edge="1" parent="1" source="ZPulBIP09_x_4onrMym9-146" target="ZPulBIP09_x_4onrMym9-149">
          <mxGeometry relative="1" as="geometry" />
        </mxCell>
        <mxCell id="ZPulBIP09_x_4onrMym9-146" value="Change permission" style="rounded=1;whiteSpace=wrap;html=1;" vertex="1" parent="1">
          <mxGeometry x="800" y="125" width="70" height="30" as="geometry" />
        </mxCell>
        <mxCell id="ZPulBIP09_x_4onrMym9-152" value="" style="edgeStyle=orthogonalEdgeStyle;rounded=0;orthogonalLoop=1;jettySize=auto;html=1;" edge="1" parent="1" source="ZPulBIP09_x_4onrMym9-149" target="ZPulBIP09_x_4onrMym9-151">
          <mxGeometry relative="1" as="geometry" />
        </mxCell>
        <mxCell id="ZPulBIP09_x_4onrMym9-149" value="read" style="rounded=1;whiteSpace=wrap;html=1;" vertex="1" parent="1">
          <mxGeometry x="800" y="167.5" width="70" height="30" as="geometry" />
        </mxCell>
        <mxCell id="ZPulBIP09_x_4onrMym9-154" value="" style="edgeStyle=orthogonalEdgeStyle;rounded=0;orthogonalLoop=1;jettySize=auto;html=1;" edge="1" parent="1" source="ZPulBIP09_x_4onrMym9-151" target="ZPulBIP09_x_4onrMym9-153">
          <mxGeometry relative="1" as="geometry" />
        </mxCell>
        <mxCell id="ZPulBIP09_x_4onrMym9-151" value="read/write" style="rounded=1;whiteSpace=wrap;html=1;" vertex="1" parent="1">
          <mxGeometry x="800" y="215" width="70" height="30" as="geometry" />
        </mxCell>
        <mxCell id="ZPulBIP09_x_4onrMym9-153" value="remove" style="rounded=1;whiteSpace=wrap;html=1;" vertex="1" parent="1">
          <mxGeometry x="800" y="260" width="70" height="30" as="geometry" />
        </mxCell>
        <mxCell id="ZPulBIP09_x_4onrMym9-160" value="" style="edgeStyle=orthogonalEdgeStyle;rounded=0;orthogonalLoop=1;jettySize=auto;html=1;" edge="1" parent="1" source="ZPulBIP09_x_4onrMym9-156" target="ZPulBIP09_x_4onrMym9-159">
          <mxGeometry relative="1" as="geometry" />
        </mxCell>
        <mxCell id="ZPulBIP09_x_4onrMym9-156" value="info" style="rounded=1;whiteSpace=wrap;html=1;" vertex="1" parent="1">
          <mxGeometry x="800" y="305" width="70" height="30" as="geometry" />
        </mxCell>
        <mxCell id="ZPulBIP09_x_4onrMym9-158" style="edgeStyle=orthogonalEdgeStyle;rounded=0;orthogonalLoop=1;jettySize=auto;html=1;" edge="1" parent="1" source="ZPulBIP09_x_4onrMym9-37" target="ZPulBIP09_x_4onrMym9-156">
          <mxGeometry relative="1" as="geometry">
            <Array as="points">
              <mxPoint x="780" y="320" />
              <mxPoint x="780" y="320" />
            </Array>
          </mxGeometry>
        </mxCell>
        <mxCell id="ZPulBIP09_x_4onrMym9-162" value="" style="edgeStyle=orthogonalEdgeStyle;rounded=0;orthogonalLoop=1;jettySize=auto;html=1;" edge="1" parent="1" source="ZPulBIP09_x_4onrMym9-159" target="ZPulBIP09_x_4onrMym9-161">
          <mxGeometry relative="1" as="geometry" />
        </mxCell>
        <mxCell id="ZPulBIP09_x_4onrMym9-159" value="Recover" style="rounded=1;whiteSpace=wrap;html=1;" vertex="1" parent="1">
          <mxGeometry x="800" y="350" width="70" height="30" as="geometry" />
        </mxCell>
        <mxCell id="ZPulBIP09_x_4onrMym9-161" value="Delete" style="rounded=1;whiteSpace=wrap;html=1;" vertex="1" parent="1">
          <mxGeometry x="800" y="390" width="70" height="30" as="geometry" />
        </mxCell>
        <mxCell id="ZPulBIP09_x_4onrMym9-164" value="Add member" style="rounded=1;whiteSpace=wrap;html=1;" vertex="1" parent="1">
          <mxGeometry x="795" y="89" width="80" height="30" as="geometry" />
        </mxCell>
        <mxCell id="ZPulBIP09_x_4onrMym9-166" style="edgeStyle=orthogonalEdgeStyle;rounded=0;orthogonalLoop=1;jettySize=auto;html=1;entryX=0.01;entryY=0.531;entryDx=0;entryDy=0;entryPerimeter=0;" edge="1" parent="1" source="ZPulBIP09_x_4onrMym9-5" target="ZPulBIP09_x_4onrMym9-164">
          <mxGeometry relative="1" as="geometry" />
        </mxCell>
        <mxCell id="ZPulBIP09_x_4onrMym9-170" value="" style="edgeStyle=orthogonalEdgeStyle;rounded=0;orthogonalLoop=1;jettySize=auto;html=1;" edge="1" parent="1" source="ZPulBIP09_x_4onrMym9-167" target="ZPulBIP09_x_4onrMym9-169">
          <mxGeometry relative="1" as="geometry" />
        </mxCell>
        <mxCell id="ZPulBIP09_x_4onrMym9-167" value="Status" style="rounded=1;whiteSpace=wrap;html=1;" vertex="1" parent="1">
          <mxGeometry x="805" y="460" width="70" height="30" as="geometry" />
        </mxCell>
        <mxCell id="ZPulBIP09_x_4onrMym9-172" value="" style="edgeStyle=orthogonalEdgeStyle;rounded=0;orthogonalLoop=1;jettySize=auto;html=1;" edge="1" parent="1" source="ZPulBIP09_x_4onrMym9-169" target="ZPulBIP09_x_4onrMym9-171">
          <mxGeometry relative="1" as="geometry" />
        </mxCell>
        <mxCell id="ZPulBIP09_x_4onrMym9-169" value="view" style="rounded=1;whiteSpace=wrap;html=1;" vertex="1" parent="1">
          <mxGeometry x="805" y="510" width="70" height="30" as="geometry" />
        </mxCell>
        <mxCell id="ZPulBIP09_x_4onrMym9-174" value="" style="edgeStyle=orthogonalEdgeStyle;rounded=0;orthogonalLoop=1;jettySize=auto;html=1;" edge="1" parent="1" source="ZPulBIP09_x_4onrMym9-171" target="ZPulBIP09_x_4onrMym9-173">
          <mxGeometry relative="1" as="geometry" />
        </mxCell>
        <mxCell id="ZPulBIP09_x_4onrMym9-171" value="edit" style="rounded=1;whiteSpace=wrap;html=1;" vertex="1" parent="1">
          <mxGeometry x="805" y="560" width="70" height="30" as="geometry" />
        </mxCell>
        <mxCell id="ZPulBIP09_x_4onrMym9-173" value="Sub folder" style="rounded=1;whiteSpace=wrap;html=1;" vertex="1" parent="1">
          <mxGeometry x="805" y="610" width="70" height="30" as="geometry" />
        </mxCell>
        <mxCell id="ZPulBIP09_x_4onrMym9-176" style="edgeStyle=orthogonalEdgeStyle;rounded=0;orthogonalLoop=1;jettySize=auto;html=1;entryX=0;entryY=0.5;entryDx=0;entryDy=0;" edge="1" parent="1" source="ZPulBIP09_x_4onrMym9-32" target="ZPulBIP09_x_4onrMym9-167">
          <mxGeometry relative="1" as="geometry">
            <Array as="points">
              <mxPoint x="707" y="250" />
              <mxPoint x="780" y="250" />
              <mxPoint x="780" y="475" />
            </Array>
          </mxGeometry>
        </mxCell>
        <mxCell id="ZPulBIP09_x_4onrMym9-245" value="" style="group" vertex="1" connectable="0" parent="1">
          <mxGeometry x="1781" y="10" width="740" height="600" as="geometry" />
        </mxCell>
        <mxCell id="ZPulBIP09_x_4onrMym9-246" value="" style="shape=internalStorage;whiteSpace=wrap;html=1;backgroundOutline=1;dx=200;dy=60;" vertex="1" parent="ZPulBIP09_x_4onrMym9-245">
          <mxGeometry width="740" height="600" as="geometry" />
        </mxCell>
        <mxCell id="ZPulBIP09_x_4onrMym9-247" value="" style="group" vertex="1" connectable="0" parent="ZPulBIP09_x_4onrMym9-245">
          <mxGeometry x="20" y="10" width="150" height="310" as="geometry" />
        </mxCell>
        <mxCell id="ZPulBIP09_x_4onrMym9-248" value="PDMS" style="rounded=1;whiteSpace=wrap;html=1;" vertex="1" parent="ZPulBIP09_x_4onrMym9-247">
          <mxGeometry width="150" height="40" as="geometry" />
        </mxCell>
        <mxCell id="ZPulBIP09_x_4onrMym9-249" value="User Profile" style="rounded=1;whiteSpace=wrap;html=1;" vertex="1" parent="ZPulBIP09_x_4onrMym9-247">
          <mxGeometry y="70" width="150" height="40" as="geometry" />
        </mxCell>
        <mxCell id="ZPulBIP09_x_4onrMym9-250" value="My Drive" style="rounded=1;whiteSpace=wrap;html=1;" vertex="1" parent="ZPulBIP09_x_4onrMym9-247">
          <mxGeometry y="123" width="150" height="40" as="geometry" />
        </mxCell>
        <mxCell id="ZPulBIP09_x_4onrMym9-251" value="Share with me" style="rounded=1;whiteSpace=wrap;html=1;" vertex="1" parent="ZPulBIP09_x_4onrMym9-247">
          <mxGeometry y="173" width="150" height="40" as="geometry" />
        </mxCell>
        <mxCell id="ZPulBIP09_x_4onrMym9-252" value="Trash" style="rounded=1;whiteSpace=wrap;html=1;" vertex="1" parent="ZPulBIP09_x_4onrMym9-247">
          <mxGeometry y="223" width="150" height="40" as="geometry" />
        </mxCell>
        <mxCell id="ZPulBIP09_x_4onrMym9-253" style="edgeStyle=orthogonalEdgeStyle;rounded=0;orthogonalLoop=1;jettySize=auto;html=1;exitX=0.5;exitY=1;exitDx=0;exitDy=0;" edge="1" parent="ZPulBIP09_x_4onrMym9-247" source="ZPulBIP09_x_4onrMym9-250" target="ZPulBIP09_x_4onrMym9-250">
          <mxGeometry relative="1" as="geometry" />
        </mxCell>
        <mxCell id="ZPulBIP09_x_4onrMym9-254" value="" style="group" vertex="1" connectable="0" parent="ZPulBIP09_x_4onrMym9-245">
          <mxGeometry x="368" y="10" width="200" height="40" as="geometry" />
        </mxCell>
        <mxCell id="ZPulBIP09_x_4onrMym9-255" value="Search" style="rounded=1;whiteSpace=wrap;html=1;" vertex="1" parent="ZPulBIP09_x_4onrMym9-254">
          <mxGeometry width="150" height="40" as="geometry" />
        </mxCell>
        <mxCell id="ZPulBIP09_x_4onrMym9-256" value="fliter" style="rounded=1;whiteSpace=wrap;html=1;" vertex="1" parent="ZPulBIP09_x_4onrMym9-254">
          <mxGeometry x="160" width="40" height="40" as="geometry" />
        </mxCell>
        <mxCell id="ZPulBIP09_x_4onrMym9-257" value="Upload" style="rounded=1;whiteSpace=wrap;html=1;" vertex="1" parent="ZPulBIP09_x_4onrMym9-245">
          <mxGeometry x="580" y="10" width="60" height="40" as="geometry" />
        </mxCell>
        <mxCell id="ZPulBIP09_x_4onrMym9-258" value="Create" style="rounded=1;whiteSpace=wrap;html=1;" vertex="1" parent="ZPulBIP09_x_4onrMym9-245">
          <mxGeometry x="650" y="10" width="60" height="40" as="geometry" />
        </mxCell>
        <mxCell id="ZPulBIP09_x_4onrMym9-259" value="&lt;b&gt;&lt;u&gt;Trash&lt;/u&gt;&lt;/b&gt;" style="text;html=1;align=center;verticalAlign=middle;whiteSpace=wrap;rounded=0;" vertex="1" parent="ZPulBIP09_x_4onrMym9-245">
          <mxGeometry x="220" y="15" width="60" height="30" as="geometry" />
        </mxCell>
        <mxCell id="ZPulBIP09_x_4onrMym9-260" value="" style="rounded=0;whiteSpace=wrap;html=1;" vertex="1" parent="ZPulBIP09_x_4onrMym9-245">
          <mxGeometry x="210" y="70" width="500" height="480" as="geometry" />
        </mxCell>
        <mxCell id="ZPulBIP09_x_4onrMym9-265" value="&lt;b&gt;&lt;u&gt;Trash&lt;/u&gt;&lt;/b&gt;" style="text;html=1;align=left;verticalAlign=middle;whiteSpace=wrap;rounded=0;" vertex="1" parent="ZPulBIP09_x_4onrMym9-245">
          <mxGeometry x="230" y="100" width="170" height="30" as="geometry" />
        </mxCell>
        <mxCell id="ZPulBIP09_x_4onrMym9-266" value="&lt;span style=&quot;white-space: pre;&quot;&gt;&#x9;&lt;/span&gt;File 1&lt;span style=&quot;white-space: pre;&quot;&gt;&#x9;&lt;/span&gt;&lt;span style=&quot;white-space: pre;&quot;&gt;&#x9;&lt;/span&gt;&lt;span style=&quot;white-space: pre;&quot;&gt;&#x9;&lt;/span&gt;&lt;span style=&quot;white-space: pre;&quot;&gt;&#x9;&lt;/span&gt;&lt;span style=&quot;white-space: pre;&quot;&gt;&#x9;&lt;/span&gt;&lt;span style=&quot;white-space: pre;&quot;&gt;&#x9;&lt;/span&gt;&lt;span style=&quot;white-space: pre;&quot;&gt;&#x9;&lt;/span&gt;(date)&lt;span style=&quot;white-space: pre;&quot;&gt;&#x9;&lt;/span&gt;By user 1" style="rounded=1;whiteSpace=wrap;html=1;align=left;" vertex="1" parent="ZPulBIP09_x_4onrMym9-245">
          <mxGeometry x="230" y="140" width="360" height="40" as="geometry" />
        </mxCell>
        <mxCell id="ZPulBIP09_x_4onrMym9-267" value="&lt;span style=&quot;white-space: pre;&quot;&gt;&#x9;&lt;/span&gt;Folder 2&lt;span style=&quot;white-space: pre;&quot;&gt;&#x9;&lt;/span&gt;&lt;span style=&quot;white-space: pre;&quot;&gt;&#x9;&lt;/span&gt;&lt;span style=&quot;white-space: pre;&quot;&gt;&#x9;&lt;/span&gt;&lt;span style=&quot;white-space: pre;&quot;&gt;&#x9;&lt;span style=&quot;white-space: pre;&quot;&gt;&#x9;&lt;/span&gt;&lt;/span&gt;&lt;span style=&quot;white-space: pre;&quot;&gt;&#x9;&lt;/span&gt;&lt;span style=&quot;white-space: pre;&quot;&gt;&#x9;&lt;/span&gt;(date)&lt;span style=&quot;white-space: pre;&quot;&gt;&#x9;&lt;/span&gt;By user 2" style="rounded=1;whiteSpace=wrap;html=1;align=left;" vertex="1" parent="ZPulBIP09_x_4onrMym9-245">
          <mxGeometry x="230" y="190" width="360" height="40" as="geometry" />
        </mxCell>
        <mxCell id="ZPulBIP09_x_4onrMym9-268" value="&lt;span style=&quot;white-space: pre;&quot;&gt;&#x9;&lt;/span&gt;File 1&lt;span style=&quot;white-space: pre;&quot;&gt;&#x9;&lt;/span&gt;&lt;span style=&quot;white-space: pre;&quot;&gt;&#x9;&lt;/span&gt;&lt;span style=&quot;white-space: pre;&quot;&gt;&#x9;&lt;/span&gt;&lt;span style=&quot;white-space: pre;&quot;&gt;&#x9;&lt;/span&gt;&lt;span style=&quot;white-space: pre;&quot;&gt;&#x9;&lt;/span&gt;&lt;span style=&quot;white-space: pre;&quot;&gt;&#x9;&lt;/span&gt;&lt;span style=&quot;white-space: pre;&quot;&gt;&#x9;&lt;/span&gt;(date)&lt;span style=&quot;white-space: pre;&quot;&gt;&#x9;&lt;/span&gt;By user 1" style="rounded=1;whiteSpace=wrap;html=1;align=left;" vertex="1" parent="ZPulBIP09_x_4onrMym9-245">
          <mxGeometry x="230" y="240" width="360" height="40" as="geometry" />
        </mxCell>
        <mxCell id="ZPulBIP09_x_4onrMym9-269" value="&lt;span style=&quot;white-space: pre;&quot;&gt;&#x9;&lt;/span&gt;Folder 2&lt;span style=&quot;white-space: pre;&quot;&gt;&#x9;&lt;/span&gt;&lt;span style=&quot;white-space: pre;&quot;&gt;&#x9;&lt;/span&gt;&lt;span style=&quot;white-space: pre;&quot;&gt;&#x9;&lt;/span&gt;&lt;span style=&quot;white-space: pre;&quot;&gt;&#x9;&lt;/span&gt;&lt;span style=&quot;white-space: pre;&quot;&gt;&#x9;&lt;/span&gt;&lt;span style=&quot;white-space: pre;&quot;&gt;&#x9;&lt;/span&gt;&lt;span style=&quot;white-space: pre;&quot;&gt;&#x9;&lt;/span&gt;(date)&lt;span style=&quot;white-space: pre;&quot;&gt;&#x9;&lt;/span&gt;By user 2" style="rounded=1;whiteSpace=wrap;html=1;align=left;" vertex="1" parent="ZPulBIP09_x_4onrMym9-245">
          <mxGeometry x="230" y="290" width="360" height="40" as="geometry" />
        </mxCell>
        <mxCell id="ZPulBIP09_x_4onrMym9-270" value="&lt;span style=&quot;white-space: pre;&quot;&gt;&#x9;&lt;/span&gt;File 1&lt;span style=&quot;white-space: pre;&quot;&gt;&#x9;&lt;/span&gt;&lt;span style=&quot;white-space: pre;&quot;&gt;&#x9;&lt;/span&gt;&lt;span style=&quot;white-space: pre;&quot;&gt;&#x9;&lt;/span&gt;&lt;span style=&quot;white-space: pre;&quot;&gt;&#x9;&lt;/span&gt;&lt;span style=&quot;white-space: pre;&quot;&gt;&#x9;&lt;/span&gt;&lt;span style=&quot;white-space: pre;&quot;&gt;&#x9;&lt;/span&gt;&lt;span style=&quot;white-space: pre;&quot;&gt;&#x9;&lt;/span&gt;(date)&lt;span style=&quot;white-space: pre;&quot;&gt;&#x9;&lt;/span&gt;By user 1" style="rounded=1;whiteSpace=wrap;html=1;align=left;" vertex="1" parent="ZPulBIP09_x_4onrMym9-245">
          <mxGeometry x="230" y="340" width="360" height="40" as="geometry" />
        </mxCell>
        <mxCell id="ZPulBIP09_x_4onrMym9-273" value="" style="group" vertex="1" connectable="0" parent="ZPulBIP09_x_4onrMym9-245">
          <mxGeometry x="600" y="140" width="105" height="40" as="geometry" />
        </mxCell>
        <mxCell id="ZPulBIP09_x_4onrMym9-272" value="Delete" style="rounded=1;whiteSpace=wrap;html=1;" vertex="1" parent="ZPulBIP09_x_4onrMym9-273">
          <mxGeometry x="55" width="50" height="40" as="geometry" />
        </mxCell>
        <mxCell id="ZPulBIP09_x_4onrMym9-271" value="Restore" style="rounded=1;whiteSpace=wrap;html=1;" vertex="1" parent="ZPulBIP09_x_4onrMym9-273">
          <mxGeometry width="50" height="40" as="geometry" />
        </mxCell>
        <mxCell id="ZPulBIP09_x_4onrMym9-274" value="" style="group" vertex="1" connectable="0" parent="ZPulBIP09_x_4onrMym9-245">
          <mxGeometry x="600" y="190" width="105" height="40" as="geometry" />
        </mxCell>
        <mxCell id="ZPulBIP09_x_4onrMym9-275" value="Delete" style="rounded=1;whiteSpace=wrap;html=1;" vertex="1" parent="ZPulBIP09_x_4onrMym9-274">
          <mxGeometry x="55" width="50" height="40" as="geometry" />
        </mxCell>
        <mxCell id="ZPulBIP09_x_4onrMym9-276" value="Restore" style="rounded=1;whiteSpace=wrap;html=1;" vertex="1" parent="ZPulBIP09_x_4onrMym9-274">
          <mxGeometry width="50" height="40" as="geometry" />
        </mxCell>
        <mxCell id="ZPulBIP09_x_4onrMym9-277" value="" style="group" vertex="1" connectable="0" parent="ZPulBIP09_x_4onrMym9-245">
          <mxGeometry x="600" y="240" width="105" height="40" as="geometry" />
        </mxCell>
        <mxCell id="ZPulBIP09_x_4onrMym9-278" value="Delete" style="rounded=1;whiteSpace=wrap;html=1;" vertex="1" parent="ZPulBIP09_x_4onrMym9-277">
          <mxGeometry x="55" width="50" height="40" as="geometry" />
        </mxCell>
        <mxCell id="ZPulBIP09_x_4onrMym9-279" value="Restore" style="rounded=1;whiteSpace=wrap;html=1;" vertex="1" parent="ZPulBIP09_x_4onrMym9-277">
          <mxGeometry width="50" height="40" as="geometry" />
        </mxCell>
        <mxCell id="ZPulBIP09_x_4onrMym9-280" value="" style="group" vertex="1" connectable="0" parent="ZPulBIP09_x_4onrMym9-245">
          <mxGeometry x="600" y="290" width="105" height="40" as="geometry" />
        </mxCell>
        <mxCell id="ZPulBIP09_x_4onrMym9-281" value="Delete" style="rounded=1;whiteSpace=wrap;html=1;" vertex="1" parent="ZPulBIP09_x_4onrMym9-280">
          <mxGeometry x="55" width="50" height="40" as="geometry" />
        </mxCell>
        <mxCell id="ZPulBIP09_x_4onrMym9-282" value="Restore" style="rounded=1;whiteSpace=wrap;html=1;" vertex="1" parent="ZPulBIP09_x_4onrMym9-280">
          <mxGeometry width="50" height="40" as="geometry" />
        </mxCell>
        <mxCell id="ZPulBIP09_x_4onrMym9-283" value="" style="group" vertex="1" connectable="0" parent="ZPulBIP09_x_4onrMym9-245">
          <mxGeometry x="600" y="340" width="105" height="40" as="geometry" />
        </mxCell>
        <mxCell id="ZPulBIP09_x_4onrMym9-284" value="Delete" style="rounded=1;whiteSpace=wrap;html=1;" vertex="1" parent="ZPulBIP09_x_4onrMym9-283">
          <mxGeometry x="55" width="50" height="40" as="geometry" />
        </mxCell>
        <mxCell id="ZPulBIP09_x_4onrMym9-285" value="Restore" style="rounded=1;whiteSpace=wrap;html=1;" vertex="1" parent="ZPulBIP09_x_4onrMym9-283">
          <mxGeometry width="50" height="40" as="geometry" />
        </mxCell>
        <mxCell id="ZPulBIP09_x_4onrMym9-324" value="a" style="group" vertex="1" connectable="0" parent="1">
          <mxGeometry x="2631" y="14" width="740" height="600" as="geometry" />
        </mxCell>
        <mxCell id="ZPulBIP09_x_4onrMym9-325" value="" style="shape=internalStorage;whiteSpace=wrap;html=1;backgroundOutline=1;dx=200;dy=60;" vertex="1" parent="ZPulBIP09_x_4onrMym9-324">
          <mxGeometry width="740" height="600" as="geometry" />
        </mxCell>
        <mxCell id="ZPulBIP09_x_4onrMym9-326" value="" style="group" vertex="1" connectable="0" parent="ZPulBIP09_x_4onrMym9-324">
          <mxGeometry x="20" y="10" width="150" height="310" as="geometry" />
        </mxCell>
        <mxCell id="ZPulBIP09_x_4onrMym9-327" value="PDMS" style="rounded=1;whiteSpace=wrap;html=1;" vertex="1" parent="ZPulBIP09_x_4onrMym9-326">
          <mxGeometry width="150" height="40" as="geometry" />
        </mxCell>
        <mxCell id="ZPulBIP09_x_4onrMym9-328" value="User Profile" style="rounded=1;whiteSpace=wrap;html=1;" vertex="1" parent="ZPulBIP09_x_4onrMym9-326">
          <mxGeometry y="70" width="150" height="40" as="geometry" />
        </mxCell>
        <mxCell id="ZPulBIP09_x_4onrMym9-329" value="My Drive" style="rounded=1;whiteSpace=wrap;html=1;" vertex="1" parent="ZPulBIP09_x_4onrMym9-326">
          <mxGeometry y="123" width="150" height="40" as="geometry" />
        </mxCell>
        <mxCell id="ZPulBIP09_x_4onrMym9-330" value="Share with me" style="rounded=1;whiteSpace=wrap;html=1;" vertex="1" parent="ZPulBIP09_x_4onrMym9-326">
          <mxGeometry y="173" width="150" height="40" as="geometry" />
        </mxCell>
        <mxCell id="ZPulBIP09_x_4onrMym9-331" value="Trash" style="rounded=1;whiteSpace=wrap;html=1;" vertex="1" parent="ZPulBIP09_x_4onrMym9-326">
          <mxGeometry y="223" width="150" height="40" as="geometry" />
        </mxCell>
        <mxCell id="ZPulBIP09_x_4onrMym9-332" style="edgeStyle=orthogonalEdgeStyle;rounded=0;orthogonalLoop=1;jettySize=auto;html=1;exitX=0.5;exitY=1;exitDx=0;exitDy=0;" edge="1" parent="ZPulBIP09_x_4onrMym9-326" source="ZPulBIP09_x_4onrMym9-329" target="ZPulBIP09_x_4onrMym9-329">
          <mxGeometry relative="1" as="geometry" />
        </mxCell>
        <mxCell id="ZPulBIP09_x_4onrMym9-333" value="" style="group" vertex="1" connectable="0" parent="ZPulBIP09_x_4onrMym9-324">
          <mxGeometry x="368" y="10" width="200" height="40" as="geometry" />
        </mxCell>
        <mxCell id="ZPulBIP09_x_4onrMym9-334" value="Search" style="rounded=1;whiteSpace=wrap;html=1;" vertex="1" parent="ZPulBIP09_x_4onrMym9-333">
          <mxGeometry width="150" height="40" as="geometry" />
        </mxCell>
        <mxCell id="ZPulBIP09_x_4onrMym9-335" value="fliter" style="rounded=1;whiteSpace=wrap;html=1;" vertex="1" parent="ZPulBIP09_x_4onrMym9-333">
          <mxGeometry x="160" width="40" height="40" as="geometry" />
        </mxCell>
        <mxCell id="ZPulBIP09_x_4onrMym9-336" value="Upload" style="rounded=1;whiteSpace=wrap;html=1;" vertex="1" parent="ZPulBIP09_x_4onrMym9-324">
          <mxGeometry x="580" y="10" width="60" height="40" as="geometry" />
        </mxCell>
        <mxCell id="ZPulBIP09_x_4onrMym9-337" value="Create" style="rounded=1;whiteSpace=wrap;html=1;" vertex="1" parent="ZPulBIP09_x_4onrMym9-324">
          <mxGeometry x="650" y="10" width="60" height="40" as="geometry" />
        </mxCell>
        <mxCell id="ZPulBIP09_x_4onrMym9-338" value="&lt;b&gt;&lt;u&gt;Trash&lt;/u&gt;&lt;/b&gt;" style="text;html=1;align=center;verticalAlign=middle;whiteSpace=wrap;rounded=0;" vertex="1" parent="ZPulBIP09_x_4onrMym9-324">
          <mxGeometry x="220" y="15" width="60" height="30" as="geometry" />
        </mxCell>
        <mxCell id="ZPulBIP09_x_4onrMym9-339" value="" style="rounded=0;whiteSpace=wrap;html=1;" vertex="1" parent="ZPulBIP09_x_4onrMym9-324">
          <mxGeometry x="210" y="70" width="500" height="500" as="geometry" />
        </mxCell>
        <mxCell id="ZPulBIP09_x_4onrMym9-361" value="" style="rounded=0;whiteSpace=wrap;html=1;" vertex="1" parent="ZPulBIP09_x_4onrMym9-324">
          <mxGeometry x="220" y="86" width="480" height="144" as="geometry" />
        </mxCell>
        <mxCell id="ZPulBIP09_x_4onrMym9-362" value="" style="rounded=0;whiteSpace=wrap;html=1;" vertex="1" parent="ZPulBIP09_x_4onrMym9-324">
          <mxGeometry x="220" y="256" width="480" height="144" as="geometry" />
        </mxCell>
        <mxCell id="ZPulBIP09_x_4onrMym9-363" value="" style="rounded=0;whiteSpace=wrap;html=1;" vertex="1" parent="ZPulBIP09_x_4onrMym9-324">
          <mxGeometry x="220" y="426" width="480" height="124" as="geometry" />
        </mxCell>
        <mxCell id="ZPulBIP09_x_4onrMym9-364" value="" style="ellipse;whiteSpace=wrap;html=1;aspect=fixed;" vertex="1" parent="ZPulBIP09_x_4onrMym9-324">
          <mxGeometry x="239" y="106" width="94" height="94" as="geometry" />
        </mxCell>
        <mxCell id="ZPulBIP09_x_4onrMym9-366" value="&lt;h1 style=&quot;margin-top: 0px;&quot;&gt;&lt;span style=&quot;background-color: rgb(255, 255, 255); color: rgb(50, 49, 48); font-family: &amp;quot;Segoe UI Variable Text&amp;quot;, &amp;quot;Segoe UI&amp;quot;, &amp;quot;Segoe UI Web (West European)&amp;quot;, &amp;quot;Segoe UI&amp;quot;, -apple-system, BlinkMacSystemFont, Roboto, &amp;quot;Helvetica Neue&amp;quot;, sans-serif; font-size: 14px; font-weight: normal;&quot;&gt;Personalize your account with a photo. Your profile photo will appear on apps and devices&lt;/span&gt;&lt;/h1&gt;" style="text;html=1;whiteSpace=wrap;overflow=hidden;rounded=0;" vertex="1" parent="ZPulBIP09_x_4onrMym9-324">
          <mxGeometry x="359" y="93" width="291" height="77" as="geometry" />
        </mxCell>
        <mxCell id="ZPulBIP09_x_4onrMym9-367" value="Add photo" style="rounded=1;whiteSpace=wrap;html=1;" vertex="1" parent="ZPulBIP09_x_4onrMym9-324">
          <mxGeometry x="359" y="170" width="82" height="30" as="geometry" />
        </mxCell>
        <mxCell id="ZPulBIP09_x_4onrMym9-368" value="&lt;span style=&quot;white-space: pre;&quot;&gt;&#x9;&lt;/span&gt;Profile Info" style="rounded=0;whiteSpace=wrap;html=1;align=left;" vertex="1" parent="ZPulBIP09_x_4onrMym9-324">
          <mxGeometry x="220" y="256" width="480" height="44" as="geometry" />
        </mxCell>
        <mxCell id="ZPulBIP09_x_4onrMym9-369" value="" style="rounded=0;whiteSpace=wrap;html=1;" vertex="1" parent="ZPulBIP09_x_4onrMym9-324">
          <mxGeometry x="226" y="306" width="464" height="34" as="geometry" />
        </mxCell>
        <mxCell id="ZPulBIP09_x_4onrMym9-370" value="" style="rounded=0;whiteSpace=wrap;html=1;" vertex="1" parent="ZPulBIP09_x_4onrMym9-324">
          <mxGeometry x="226" y="346" width="464" height="34" as="geometry" />
        </mxCell>
        <mxCell id="ZPulBIP09_x_4onrMym9-372" value="&lt;span style=&quot;white-space: pre;&quot;&gt;&#x9;&lt;/span&gt;Account Info" style="rounded=0;whiteSpace=wrap;html=1;align=left;" vertex="1" parent="ZPulBIP09_x_4onrMym9-324">
          <mxGeometry x="220" y="420" width="480" height="50" as="geometry" />
        </mxCell>
        <mxCell id="ZPulBIP09_x_4onrMym9-373" value="&lt;span style=&quot;white-space: pre;&quot;&gt;&#x9;&lt;/span&gt;Email:&lt;span style=&quot;white-space: pre;&quot;&gt;&#x9;&lt;/span&gt; email@example.com" style="rounded=0;whiteSpace=wrap;html=1;align=left;" vertex="1" parent="ZPulBIP09_x_4onrMym9-324">
          <mxGeometry x="228" y="476" width="464" height="34" as="geometry" />
        </mxCell>
        <mxCell id="ZPulBIP09_x_4onrMym9-374" value="&lt;u&gt;Change Password&lt;/u&gt;" style="text;html=1;align=center;verticalAlign=middle;whiteSpace=wrap;rounded=0;" vertex="1" parent="ZPulBIP09_x_4onrMym9-324">
          <mxGeometry x="228" y="510" width="102" height="30" as="geometry" />
        </mxCell>
        <mxCell id="ZPulBIP09_x_4onrMym9-375" value="&lt;u&gt;Reset password&lt;/u&gt;" style="text;html=1;align=center;verticalAlign=middle;whiteSpace=wrap;rounded=0;" vertex="1" parent="ZPulBIP09_x_4onrMym9-324">
          <mxGeometry x="412" y="510" width="92" height="30" as="geometry" />
        </mxCell>
        <mxCell id="ZPulBIP09_x_4onrMym9-376" value="&lt;u&gt;Delete Account&lt;/u&gt;" style="text;html=1;align=center;verticalAlign=middle;whiteSpace=wrap;rounded=0;" vertex="1" parent="ZPulBIP09_x_4onrMym9-324">
          <mxGeometry x="598" y="510" width="92" height="30" as="geometry" />
        </mxCell>
        <mxCell id="ZPulBIP09_x_4onrMym9-407" value="&lt;u&gt;Edit Profile&lt;/u&gt;" style="text;html=1;align=center;verticalAlign=middle;whiteSpace=wrap;rounded=0;" vertex="1" parent="ZPulBIP09_x_4onrMym9-324">
          <mxGeometry x="598" y="263" width="92" height="30" as="geometry" />
        </mxCell>
      </root>
    </mxGraphModel>
  </diagram>
</mxfile>
